# xmcd
#
# Track frame offsets:
# 150
# 14792
# 29472
# 44885
# 62212
# 76252
# 93845
# 110032
# 125492
# 141257
# 155677
# 169640
# 186285
# 197055
# 209455
#
# Disc length: 2971 seconds
#
#
# Revision: 0
# Processed by: cddbd v1.5.2PL0 Copyright (c) Steve Scherf et al.
# Submitted via: FreeRIP 2.942 
#
DISCID=e10b990f
DTITLE=Raven Symony - That's So Raven Too
DYEAR=2006
DGENRE=Pop
TTITLE0=Some Call It Magic
TTITLE1=Friends
TTITLE2=Little By Little
TTITLE3=Jump In
TTITLE4=She's No You (Remix)
TTITLE5=Walking on Sunshine
TTITLE6=Let's Groove
TTITLE7=Let's Stick Together
TTITLE8=A Day in the Sun
TTITLE9=I Can See Clearly Now
TTITLE10=Will it Go Round in Circles
TTITLE11=This Is My Time (Remix)
TTITLE12=Respect
TTITLE13=Supernatural (Too! Remix)
TTITLE14=Some Call It Magic (B.F.F. Mix)
EXTD=
EXTT0=
EXTT1=
EXTT2=
EXTT3=
EXTT4=
EXTT5=
EXTT6=
EXTT7=
EXTT8=
EXTT9=
EXTT10=
EXTT11=
EXTT12=
EXTT13=
EXTT14=
PLAYORDER=
